<?xml version="1.0" encoding="UTF-8"?>
<svg xmlns="http://www.w3.org/2000/svg" viewBox="0 0 2048 2048" width="2048" height="2048">
  <defs>
    <linearGradient id="logoGradient" x1="25%" y1="85%" x2="80%" y2="20%">
      <stop offset="0%" stop-color="#4EC7EB"/>
      <stop offset="100%" stop-color="#12AAD6"/>
    </linearGradient>
  </defs>
  <g transform="translate(1024 1024) scale(1.08) translate(-1024 -1024)">
    <g fill="url(#logoGradient)" fill-rule="evenodd">
      <path d="M 1059 576 L 964 579 L 920 588 L 914 584 L 912 588 L 917 589 L 892 596 L 883 594 L 880 597 L 884 598 L 854 610 L 849 608 L 839 616 L 825 616 L 828 619 L 800 633 L 774 651 L 768 651 L 767 656 L 729 682 L 684 726 L 671 743 L 665 741 L 668 744 L 666 750 L 651 764 L 648 773 L 614 826 L 610 838 L 604 844 L 604 851 L 585 890 L 577 926 L 572 936 L 564 1000 L 565 1061 L 569 1095 L 578 1125 L 586 1140 L 630 1163 L 697 1181 L 771 1183 L 799 1180 L 826 1172 L 832 1174 L 782 1190 L 730 1196 L 669 1192 L 617 1178 L 618 1184 L 634 1194 L 635 1199 L 638 1198 L 650 1207 L 679 1219 L 705 1224 L 755 1224 L 797 1213 L 837 1196 L 879 1170 L 884 1171 L 935 1131 L 919 1176 L 903 1203 L 900 1201 L 902 1207 L 865 1256 L 831 1287 L 800 1307 L 766 1323 L 723 1334 L 684 1338 L 685 1343 L 715 1371 L 715 1374 L 729 1374 L 754 1364 L 761 1364 L 764 1360 L 774 1358 L 775 1355 L 805 1341 L 822 1330 L 854 1301 L 858 1303 L 858 1297 L 886 1268 L 906 1237 L 908 1240 L 890 1267 L 886 1278 L 865 1305 L 859 1307 L 859 1312 L 836 1335 L 791 1368 L 778 1372 L 767 1381 L 762 1380 L 760 1384 L 744 1388 L 741 1394 L 801 1435 L 846 1454 L 851 1459 L 912 1478 L 943 1485 L 979 1488 L 983 1491 L 1062 1491 L 1066 1488 L 1103 1485 L 1193 1461 L 1197 1456 L 1213 1451 L 1260 1427 L 1315 1388 L 1355 1348 L 1358 1348 L 1369 1332 L 1379 1324 L 1425 1255 L 1443 1220 L 1465 1152 L 1468 1154 L 1466 1150 L 1471 1137 L 1480 1076 L 1480 1003 L 1474 961 L 1476 958 L 1468 928 L 1471 925 L 1468 928 L 1459 890 L 1450 869 L 1454 864 L 1448 866 L 1443 852 L 1445 848 L 1440 846 L 1418 804 L 1415 789 L 1412 792 L 1396 764 L 1384 753 L 1381 746 L 1335 699 L 1338 696 L 1334 698 L 1300 668 L 1280 656 L 1279 651 L 1275 652 L 1264 645 L 1262 640 L 1257 641 L 1246 632 L 1239 631 L 1222 620 L 1167 599 L 1170 596 L 1167 599 L 1123 586 L 1116 587 Z M 1214 831 L 1223 842 L 1223 851 L 1216 871 L 1206 890 L 1202 889 L 1202 896 L 1191 913 L 1179 924 L 1179 928 L 1171 932 L 1173 935 L 1156 952 L 1165 987 L 1164 994 L 1168 1000 L 1179 996 L 1187 1006 L 1176 1020 L 1175 1030 L 1178 1036 L 1184 1031 L 1190 1031 L 1196 1038 L 1194 1047 L 1184 1056 L 1184 1065 L 1195 1101 L 1192 1109 L 1195 1106 L 1204 1132 L 1199 1145 L 1192 1153 L 1188 1152 L 1189 1160 L 1178 1175 L 1174 1176 L 1155 1144 L 1157 1136 L 1153 1139 L 1133 1100 L 1109 1064 L 1110 1056 L 1104 1057 L 1092 1040 L 1092 1035 L 1085 1032 L 1085 1028 L 1002 1094 L 1004 1123 L 1007 1124 L 1013 1157 L 1003 1175 L 997 1176 L 979 1136 L 969 1121 L 962 1120 L 951 1125 L 943 1125 L 938 1116 L 944 1098 L 936 1088 L 929 1088 L 921 1083 L 927 1080 L 919 1082 L 883 1066 L 882 1062 L 899 1050 L 966 1060 L 972 1056 L 988 1030 L 998 1020 L 1000 1013 L 1005 1012 L 1017 992 L 1028 981 L 1027 972 L 948 924 L 937 921 L 917 908 L 889 896 L 879 889 L 880 886 L 919 858 L 998 877 L 1007 864 L 1015 862 L 1023 869 L 1023 874 L 1018 880 L 1020 884 L 1030 885 L 1048 870 L 1056 876 L 1054 890 L 1085 896 L 1098 902 L 1109 890 L 1115 891 L 1112 888 L 1134 868 L 1140 867 L 1167 845 L 1194 832 Z"/>
    </g>
    <path d="M 1214 831 L 1195 832 L 1188 837 L 1181 838 L 1179 840 L 1175 841 L 1173 844 L 1168 845 L 1165 848 L 1160 850 L 1156 855 L 1154 854 L 1152 855 L 1151 857 L 1143 862 L 1138 869 L 1135 868 L 1123 880 L 1121 880 L 1118 884 L 1115 885 L 1103 898 L 1101 898 L 1099 900 L 1095 900 L 1071 894 L 1064 894 L 1060 892 L 1056 892 L 1053 888 L 1055 883 L 1057 882 L 1056 880 L 1057 878 L 1055 877 L 1055 875 L 1048 871 L 1040 875 L 1038 879 L 1033 884 L 1031 885 L 1025 885 L 1024 884 L 1023 885 L 1017 881 L 1019 878 L 1019 875 L 1022 874 L 1023 870 L 1019 867 L 1018 864 L 1015 863 L 1008 864 L 1007 867 L 1003 869 L 997 877 L 992 877 L 989 875 L 983 875 L 980 873 L 960 870 L 958 868 L 952 868 L 943 864 L 928 862 L 919 858 L 916 860 L 913 860 L 906 867 L 902 868 L 892 877 L 889 878 L 884 884 L 882 884 L 879 888 L 879 890 L 886 894 L 887 893 L 888 895 L 893 896 L 894 898 L 900 900 L 903 903 L 908 904 L 911 907 L 916 907 L 918 910 L 922 911 L 929 916 L 931 916 L 934 919 L 936 919 L 938 921 L 941 920 L 942 921 L 941 922 L 945 924 L 947 923 L 950 927 L 952 927 L 956 929 L 957 931 L 967 935 L 987 948 L 996 951 L 999 955 L 1004 955 L 1005 959 L 1007 959 L 1008 961 L 1011 961 L 1014 965 L 1023 970 L 1029 976 L 1028 982 L 1017 993 L 1016 997 L 1009 1004 L 1010 1007 L 1006 1008 L 1005 1011 L 1001 1013 L 1000 1017 L 997 1019 L 992 1026 L 992 1028 L 988 1031 L 986 1035 L 982 1039 L 980 1045 L 976 1048 L 975 1052 L 967 1060 L 947 1058 L 942 1056 L 934 1056 L 933 1055 L 926 1055 L 925 1054 L 917 1054 L 916 1053 L 910 1053 L 903 1051 L 897 1051 L 895 1054 L 893 1054 L 882 1063 L 882 1065 L 888 1067 L 892 1070 L 895 1069 L 899 1073 L 901 1073 L 908 1077 L 911 1077 L 912 1079 L 927 1085 L 930 1088 L 934 1088 L 938 1093 L 942 1096 L 943 1095 L 944 1096 L 944 1101 L 942 1109 L 939 1115 L 940 1121 L 942 1122 L 942 1124 L 948 1125 L 958 1121 L 961 1121 L 963 1119 L 967 1119 L 976 1131 L 976 1134 L 979 1137 L 982 1145 L 984 1146 L 985 1151 L 989 1157 L 990 1161 L 992 1162 L 992 1165 L 995 1168 L 995 1172 L 999 1178 L 1000 1178 L 1011 1163 L 1010 1162 L 1012 1161 L 1011 1147 L 1009 1145 L 1009 1137 L 1007 1134 L 1006 1121 L 1004 1119 L 1003 1104 L 1001 1101 L 1001 1096 L 1002 1095 L 1001 1094 L 1005 1093 L 1011 1087 L 1014 1086 L 1019 1080 L 1022 1080 L 1024 1077 L 1026 1077 L 1029 1072 L 1033 1071 L 1036 1067 L 1039 1066 L 1042 1063 L 1043 1060 L 1044 1062 L 1048 1057 L 1056 1052 L 1069 1039 L 1075 1035 L 1081 1029 L 1083 1029 L 1091 1037 L 1092 1040 L 1095 1041 L 1099 1050 L 1102 1051 L 1103 1055 L 1108 1060 L 1109 1064 L 1112 1066 L 1113 1070 L 1118 1076 L 1119 1080 L 1124 1084 L 1125 1090 L 1130 1097 L 1132 1098 L 1133 1103 L 1134 1102 L 1135 1103 L 1134 1105 L 1141 1114 L 1142 1120 L 1145 1123 L 1145 1125 L 1150 1132 L 1152 1138 L 1155 1141 L 1156 1145 L 1159 1146 L 1160 1149 L 1159 1150 L 1161 1152 L 1161 1154 L 1165 1161 L 1168 1163 L 1168 1167 L 1171 1170 L 1174 1176 L 1176 1176 L 1184 1166 L 1184 1163 L 1188 1161 L 1189 1157 L 1195 1150 L 1195 1147 L 1199 1144 L 1204 1137 L 1202 1128 L 1200 1127 L 1201 1123 L 1198 1118 L 1198 1114 L 1195 1107 L 1195 1102 L 1191 1095 L 1191 1088 L 1187 1078 L 1187 1072 L 1185 1071 L 1183 1063 L 1184 1062 L 1183 1061 L 1183 1056 L 1185 1055 L 1187 1051 L 1189 1051 L 1195 1045 L 1195 1036 L 1193 1036 L 1192 1035 L 1193 1034 L 1191 1032 L 1187 1032 L 1186 1031 L 1183 1032 L 1180 1036 L 1178 1036 L 1174 1029 L 1173 1024 L 1179 1018 L 1179 1016 L 1185 1011 L 1186 1003 L 1179 996 L 1176 996 L 1177 997 L 1174 1000 L 1173 999 L 1171 1001 L 1168 1001 L 1166 999 L 1166 993 L 1162 982 L 1161 973 L 1158 967 L 1158 961 L 1156 958 L 1156 953 L 1167 942 L 1167 939 L 1172 937 L 1173 934 L 1178 929 L 1179 927 L 1178 925 L 1185 920 L 1185 918 L 1188 916 L 1187 915 L 1191 912 L 1192 907 L 1203 894 L 1202 890 L 1206 889 L 1209 884 L 1208 883 L 1211 881 L 1211 876 L 1215 872 L 1217 864 L 1220 859 L 1220 855 L 1222 852 L 1222 841 L 1221 838 Z" fill="#FFFFFF"/>
  </g>
</svg>
